<svg width="151" height="80" viewBox="0 0 151 80" fill="none" xmlns="http://www.w3.org/2000/svg">
<g clip-path="url(#clip0_1285_15864)">
<path d="M150.036 48.5353L134.826 38.7148V58.9516L150.036 48.5353Z" fill="#3BA2F9"/>
<path d="M134.827 58.9516V34.4825C134.827 32.2637 134.827 29.7572 133.479 27.3329C132.024 24.7237 129.525 22.8746 126.613 22.2377C123.81 21.6214 120.79 22.2377 118.139 23.9635C117.531 24.3539 115.749 26.018 115.293 26.5522L120.703 30.2708C121.007 29.6956 121.138 29.3463 121.659 28.8943C122.094 28.5039 122.637 28.1752 123.224 27.9698C124.267 27.6205 125.614 27.5178 126.613 28.0314C127.265 28.3601 127.808 28.8943 128.156 29.5106C128.851 30.7639 128.678 32.6951 128.678 34.7085V67.7243L123.202 76.4559C125.266 78.4487 128.178 79.7431 131.567 79.7431C134.957 79.7431 138.108 78.346 140.193 76.2299L134.87 67.7448V58.931L134.827 58.9516Z" fill="#21469C"/>
<path d="M118.662 28.2985L113.208 24.7853L75.3574 0.37793L0.677734 48.5353L37.181 73.4974V73.0043C36.1164 69.6144 35.5297 66.0191 35.5297 62.3004C35.5297 41.4678 53.3903 24.5799 75.4226 24.5799C97.455 24.5799 115.316 41.4678 115.316 62.3004C115.316 66.1218 114.707 69.8199 113.577 73.3125V73.518L124.724 65.8958V34.7702C124.724 33.8868 124.746 33.0239 124.724 32.2226L118.683 28.3396L118.662 28.2985Z" fill="#3BA2F9"/>
<path d="M75.4008 32.9006C95.934 32.9006 112.838 47.5902 115.033 66.4505C115.185 65.074 115.294 63.6975 115.294 62.3004C115.294 41.4678 97.4332 24.5799 75.4008 24.5799C53.3685 24.5799 35.5079 41.4678 35.5079 62.3004C35.5079 63.6975 35.5948 65.0945 35.7687 66.4505C37.9632 47.5902 54.8677 32.9006 75.4008 32.9006Z" fill="#8DEAFF"/>
<path d="M50.1956 73.97C55.5957 73.97 59.9733 69.8307 59.9733 64.7247C59.9733 59.6187 55.5957 55.4795 50.1956 55.4795C44.7956 55.4795 40.418 59.6187 40.418 64.7247C40.418 69.8307 44.7956 73.97 50.1956 73.97Z" fill="#FFC5D2"/>
<path d="M100.606 73.97C106.006 73.97 110.383 69.8307 110.383 64.7247C110.383 59.6187 106.006 55.4795 100.606 55.4795C95.2057 55.4795 90.8281 59.6187 90.8281 64.7247C90.8281 69.8307 95.2057 73.97 100.606 73.97Z" fill="#FFC5D2"/>
<path d="M65.0151 58.5612C66.8151 58.5612 68.2743 57.1814 68.2743 55.4794C68.2743 53.7774 66.8151 52.3977 65.0151 52.3977C63.2151 52.3977 61.7559 53.7774 61.7559 55.4794C61.7559 57.1814 63.2151 58.5612 65.0151 58.5612Z" fill="#3BA2F9"/>
<path d="M85.7866 58.5612C87.5866 58.5612 89.0458 57.1814 89.0458 55.4794C89.0458 53.7774 87.5866 52.3977 85.7866 52.3977C83.9865 52.3977 82.5273 53.7774 82.5273 55.4794C82.5273 57.1814 83.9865 58.5612 85.7866 58.5612Z" fill="#3BA2F9"/>
<path d="M75.4008 72.6551C68.1219 72.6551 61.7555 69.2035 58.7788 63.6358C58.366 62.8757 58.6919 61.9511 59.4958 61.5608C60.2998 61.1704 61.2775 61.4786 61.6904 62.2388C64.1239 66.7587 69.3821 69.5733 75.4226 69.5733C81.463 69.5733 86.7212 66.7587 89.133 62.2388C89.5459 61.4786 90.5236 61.1704 91.3276 61.5608C92.1315 61.9511 92.4574 62.8757 92.0446 63.6358C89.0678 69.2035 82.7015 72.6551 75.4226 72.6551H75.4008Z" fill="#3BA2F9"/>
</g>
<defs>
<clipPath id="clip0_1285_15864">
<rect width="149.359" height="79.4062" fill="white" transform="translate(0.677734 0.37793)"/>
</clipPath>
</defs>
</svg>
