<svg width="231" height="128" viewBox="0 0 231 128" fill="none" xmlns="http://www.w3.org/2000/svg">
<g clip-path="url(#clip0_1285_15172)">
<path d="M163.062 33.7034L153.133 26.9446V40.8669L163.062 33.7034Z" fill="white"/>
<path opacity="0.7" d="M153.133 40.8669V24.0307C153.133 22.4928 153.133 20.7727 152.261 19.1134C151.309 17.3124 149.688 16.0375 147.783 15.6126C145.959 15.1876 143.993 15.6126 142.271 16.8065C141.866 17.0898 140.711 18.223 140.407 18.5872L143.933 21.1572C144.135 20.7525 144.216 20.5299 144.561 20.2061C144.844 19.9228 145.189 19.7002 145.574 19.5788C146.263 19.336 147.134 19.2753 147.783 19.6193C148.208 19.8419 148.553 20.2061 148.776 20.6311C149.222 21.481 149.1 22.8165 149.1 24.2128V46.9376L145.533 52.9477C146.871 54.3237 148.776 55.2141 150.985 55.2141C153.193 55.2141 155.24 54.2428 156.598 52.7858L153.133 46.9579V40.8871V40.8669Z" fill="white"/>
<path d="M27.8585 95.969V107.18H22.3669V96.4344C22.3669 94.6132 21.4955 93.4395 19.7325 93.4395C17.9696 93.4395 16.8753 94.7144 16.8753 96.8796V107.18H11.3837V96.4344C11.3837 94.6132 10.5123 93.4395 8.74929 93.4395C6.98629 93.4395 5.89202 94.7144 5.89202 96.8796V107.18H0.400391V88.9067H5.89202V90.5863C6.74312 89.3519 8.344 88.4008 10.796 88.4008C12.9643 88.4008 14.5651 89.271 15.5986 90.8089C16.6321 89.3519 18.314 88.4008 20.9079 88.4008C25.1229 88.4008 27.8585 91.3957 27.8585 95.969Z" fill="white"/>
<path d="M31.0603 84.0097C31.0603 82.2087 32.5599 80.7112 34.3634 80.7112C36.1669 80.7112 37.6665 82.2087 37.6665 84.0097C37.6665 85.8106 36.1669 87.3081 34.3634 87.3081C32.5599 87.3081 31.0603 85.8106 31.0603 84.0097ZM31.6074 88.9067H37.0991V107.18H31.6074V88.9067Z" fill="white"/>
<path d="M52.0946 88.5425V94.7549C49.825 94.3906 46.603 95.3012 46.603 98.9234V107.18H41.1114V88.9067H46.603V92.1647C47.3325 89.7161 49.7845 88.5425 52.0946 88.5425Z" fill="white"/>
<path d="M54.1211 84.0097C54.1211 82.2087 55.6207 80.7112 57.4242 80.7112C59.2277 80.7112 60.7273 82.2087 60.7273 84.0097C60.7273 85.8106 59.2277 87.3081 57.4242 87.3081C55.6207 87.3081 54.1211 85.8106 54.1211 84.0097ZM54.6682 88.9067H60.1599V107.18H54.6682V88.9067Z" fill="white"/>
<path d="M81.7413 95.969V107.18H76.2497V96.7582C76.2497 94.4918 74.8312 93.4395 73.0682 93.4395C71.062 93.4395 69.6638 94.6132 69.6638 97.2034V107.18H64.1722V88.9067H69.6638V90.6268C70.6568 89.271 72.4805 88.4008 74.892 88.4008C78.5801 88.4008 81.7413 91.0315 81.7413 95.969Z" fill="white"/>
<path d="M104.275 88.9067V107.18H98.7837V105.46C97.5678 106.856 95.7845 107.686 93.3326 107.686C88.5299 107.686 84.5784 103.476 84.5784 98.0331C84.5784 92.5896 88.5299 88.3806 93.3326 88.3806C95.7845 88.3806 97.5678 89.2305 98.7837 90.6065V88.8865H104.275V88.9067ZM98.7837 98.0533C98.7837 95.3215 96.9599 93.6014 94.4268 93.6014C91.8938 93.6014 90.07 95.3215 90.07 98.0533C90.07 100.785 91.8938 102.505 94.4268 102.505C96.9599 102.505 98.7837 100.785 98.7837 98.0533Z" fill="white"/>
<path d="M117.589 102.809C119.089 102.809 120.365 102.222 121.095 101.412L125.492 103.942C123.689 106.431 120.993 107.706 117.508 107.706C111.246 107.706 107.376 103.497 107.376 98.0533C107.376 92.6099 111.327 88.4008 117.103 88.4008C122.452 88.4008 126.404 92.5289 126.404 98.0533C126.404 98.8223 126.323 99.5508 126.181 100.239H113.192C113.881 102.141 115.563 102.788 117.589 102.788V102.809ZM120.953 96.1511C120.365 94.0264 118.724 93.2574 117.082 93.2574C114.995 93.2574 113.597 94.2894 113.09 96.1511H120.953Z" fill="white"/>
<path d="M127.701 104.225C127.701 102.323 129.281 100.745 131.186 100.745C133.091 100.745 134.672 102.323 134.672 104.225C134.672 106.127 133.091 107.706 131.186 107.706C129.281 107.706 127.701 106.127 127.701 104.225Z" fill="white"/>
<path d="M152.504 101.696C152.504 105.905 148.837 107.686 144.885 107.686C141.217 107.686 138.441 106.289 137.022 103.335L141.785 100.623C142.251 102.02 143.284 102.788 144.905 102.788C146.222 102.788 146.891 102.384 146.891 101.655C146.891 99.6519 137.894 100.704 137.894 94.3906C137.894 90.4042 141.258 88.4008 145.067 88.4008C148.026 88.4008 150.66 89.7161 152.2 92.3063L147.519 94.8358C147.013 93.8847 146.283 93.2372 145.067 93.2372C144.115 93.2372 143.527 93.6014 143.527 94.2692C143.527 96.3535 152.525 94.9572 152.525 101.716L152.504 101.696Z" fill="white"/>
<path d="M161.644 94.168V100.643C161.644 102.222 163.001 102.364 165.413 102.222V107.2C158.239 107.928 156.152 105.783 156.152 100.664V94.1883H153.234V88.9269H156.152V85.4464L161.644 83.8073V88.9269H165.413V94.1883H161.644V94.168Z" fill="white"/>
<path d="M186.204 88.9067V107.18H180.712V105.46C179.719 106.815 177.896 107.686 175.484 107.686C171.796 107.686 168.635 105.055 168.635 100.117V88.9067H174.126V99.3282C174.126 101.595 175.545 102.647 177.308 102.647C179.314 102.647 180.712 101.473 180.712 98.883V88.9067H186.204Z" fill="white"/>
<path d="M209.001 81.6016V107.18H203.51V105.46C202.294 106.856 200.51 107.686 198.059 107.686C193.256 107.686 189.304 103.476 189.304 98.0331C189.304 92.5896 193.256 88.3806 198.059 88.3806C200.51 88.3806 202.294 89.2305 203.51 90.6065V81.5813H209.001V81.6016ZM203.51 98.0533C203.51 95.3215 201.686 93.6014 199.153 93.6014C196.62 93.6014 194.796 95.3215 194.796 98.0533C194.796 100.785 196.62 102.505 199.153 102.505C201.686 102.505 203.51 100.785 203.51 98.0533Z" fill="white"/>
<path d="M230.4 88.9067L224.139 106.633C222.092 112.441 218.829 114.748 213.703 114.485V109.365C216.256 109.365 217.472 108.556 218.282 106.33L211.007 88.8865H217.046L221.119 100.077L224.564 88.8865H230.421L230.4 88.9067Z" fill="white"/>
<path d="M168.432 120.596C168.432 120.717 168.432 120.839 168.432 120.96H161.542C161.725 122.68 163.042 123.793 164.764 123.793C166.021 123.793 166.953 123.206 167.399 122.417L168.067 122.822C167.439 123.854 166.264 124.542 164.744 124.542C162.393 124.542 160.752 122.862 160.752 120.576C160.752 118.289 162.373 116.61 164.683 116.61C166.993 116.61 168.432 118.532 168.432 120.596ZM161.522 120.212H167.642C167.48 118.35 166.163 117.318 164.683 117.318C162.941 117.318 161.684 118.512 161.542 120.212H161.522Z" fill="white"/>
<path d="M176.639 119.645V124.36H175.869V119.645C175.869 118.249 175.059 117.338 173.64 117.338C172.222 117.338 170.985 118.309 170.985 120.353V124.36H170.215V116.771H170.985V118.208C171.573 117.075 172.546 116.589 173.701 116.589C175.504 116.589 176.659 117.783 176.659 119.625L176.639 119.645Z" fill="white"/>
<path d="M186.305 116.771V123.996C186.305 126.282 184.623 127.557 182.516 127.557C180.733 127.557 179.476 126.849 178.929 125.736L179.598 125.351C180.003 126.161 180.854 126.829 182.516 126.829C184.421 126.829 185.535 125.716 185.535 123.996V122.599C184.907 123.773 183.732 124.522 182.273 124.522C180.104 124.522 178.341 122.802 178.341 120.556C178.341 118.309 180.104 116.589 182.273 116.589C183.752 116.589 184.927 117.358 185.535 118.512V116.751H186.305V116.771ZM185.535 120.576C185.535 118.775 184.117 117.338 182.313 117.338C180.51 117.338 179.091 118.755 179.091 120.576C179.091 122.397 180.51 123.814 182.313 123.814C184.117 123.814 185.535 122.377 185.535 120.576Z" fill="white"/>
<path d="M188.656 113.271H189.426V124.36H188.656V113.271Z" fill="white"/>
<path d="M191.533 114.323C191.533 113.999 191.817 113.736 192.141 113.736C192.466 113.736 192.749 114.019 192.749 114.323C192.749 114.667 192.486 114.93 192.141 114.93C191.797 114.93 191.533 114.647 191.533 114.323ZM191.756 116.771H192.526V124.36H191.756V116.771Z" fill="white"/>
<path d="M199.984 122.377C199.984 123.631 198.889 124.542 197.268 124.542C195.748 124.542 194.735 123.834 194.37 122.862L195.019 122.478C195.282 123.308 196.113 123.814 197.248 123.814C198.322 123.814 199.214 123.348 199.214 122.377C199.214 120.313 194.614 121.486 194.614 118.755C194.614 117.561 195.647 116.589 197.207 116.589C198.444 116.589 199.376 117.176 199.801 118.107L199.153 118.471C198.829 117.682 198.038 117.318 197.207 117.318C196.215 117.318 195.384 117.844 195.384 118.734C195.384 120.778 199.984 119.564 199.984 122.357V122.377Z" fill="white"/>
<path d="M208.191 119.645V124.36H207.421V119.645C207.421 118.249 206.61 117.338 205.192 117.338C203.773 117.338 202.537 118.309 202.537 120.353V124.36H201.767V113.736H202.537V118.208C203.125 117.075 204.097 116.589 205.252 116.589C207.056 116.589 208.211 117.783 208.211 119.625L208.191 119.645Z" fill="white"/>
<path d="M142.615 19.7812L139.049 17.3529L114.387 0.557129L65.7123 33.7034L89.5026 50.8836V38.8231C89.5026 31.4775 100.648 25.5079 114.387 25.5079C117.893 25.5079 121.216 25.8924 124.256 26.6006C124.945 26.7423 125.593 26.9244 126.262 27.1065C126.931 27.3089 127.579 27.5112 128.207 27.7338C128.268 27.7338 128.309 27.7743 128.37 27.7945C129.646 28.26 130.862 28.7861 131.956 29.3729C131.977 29.3729 132.017 29.4134 132.037 29.4134C132.544 29.6967 133.03 29.98 133.496 30.2633C133.557 30.3038 133.598 30.324 133.659 30.3645C134.631 30.9918 135.503 31.6798 136.232 32.4083C136.273 32.4488 136.313 32.4893 136.354 32.5297C136.678 32.8535 136.962 33.1773 137.245 33.5213C137.286 33.582 137.347 33.6427 137.387 33.6832C137.975 34.4319 138.421 35.2211 138.745 36.0305C138.785 36.1115 138.806 36.1924 138.826 36.2733C138.948 36.5971 139.029 36.9209 139.11 37.2447C139.13 37.3458 139.15 37.447 139.17 37.5482C139.231 37.9529 139.292 38.3576 139.292 38.7826V50.8634L146.567 45.6223V24.1926C146.567 23.5855 146.567 22.9987 146.567 22.4523L142.636 19.7812H142.615Z" fill="white"/>
<path opacity="0.3" d="M114.387 25.5079C100.648 25.5079 89.5026 31.4572 89.5026 38.8231V53.5345H139.272V38.8231C139.272 31.4775 128.126 25.5079 114.387 25.5079Z" fill="white"/>
<g opacity="0.5">
<path d="M139.272 38.8028C139.272 33.3189 133.091 28.6242 124.256 26.5804V53.5143H139.272V38.8028Z" fill="white"/>
</g>
<path opacity="0.6" d="M133.659 61.9526C137.185 59.666 139.292 56.7318 139.292 53.5345C139.292 46.1889 128.147 40.2193 114.407 40.2193C100.668 40.2193 89.5229 46.1687 89.5229 53.5345C89.5229 60.9003 100.668 66.8497 114.407 66.8497C118.744 66.8497 122.837 66.2426 126.384 65.2106C129.667 66.8294 134.449 68.7114 139.252 68.8125C139.252 68.8125 135.726 65.4736 133.659 61.9728V61.9526Z" fill="white"/>
</g>
<defs>
<clipPath id="clip0_1285_15172">
<rect width="230" height="127" fill="white" transform="translate(0.400391 0.557129)"/>
</clipPath>
</defs>
</svg>
