<svg width="223" height="124" viewBox="0 0 223 124" fill="none" xmlns="http://www.w3.org/2000/svg">
<g clip-path="url(#clip0_1285_15448)">
<path d="M157.398 32.6631L147.82 26.1197V39.599L157.398 32.6631Z" fill="#3BA2F9"/>
<path d="M147.82 39.599V23.2988C147.82 21.8157 147.82 20.1435 146.964 18.544C146.049 16.7991 144.467 15.5632 142.653 15.156C140.883 14.7343 138.982 15.156 137.327 16.3047C136.95 16.5665 135.832 17.6716 135.542 18.0351L138.953 20.5215C139.141 20.1435 139.228 19.9108 139.548 19.5909C139.823 19.3292 140.157 19.1111 140.52 18.9802C141.173 18.7476 142.029 18.6894 142.653 19.0239C143.06 19.242 143.408 19.6055 143.611 20.0126C144.047 20.8414 143.93 22.1356 143.93 23.4733V45.4734L140.491 51.2897C141.797 52.6129 143.626 53.4854 145.745 53.4854C147.863 53.4854 149.852 52.5548 151.172 51.1443L147.82 45.488V39.6135V39.599Z" fill="#21469C"/>
<path d="M26.9005 92.9634V103.825H21.6034V93.4142C21.6034 91.6402 20.7616 90.5061 19.0637 90.5061C17.3657 90.5061 16.3063 91.742 16.3063 93.8359V103.811H11.0091V93.3997C11.0091 91.6257 10.1674 90.4915 8.46942 90.4915C6.77144 90.4915 5.71202 91.7275 5.71202 93.8213V103.796H0.400391V86.1002H5.69751V87.7288C6.51022 86.5219 8.06307 85.6058 10.4286 85.6058C12.5185 85.6058 14.0713 86.4492 15.0582 87.9469C16.045 86.5364 17.6704 85.6058 20.1811 85.6058C24.2447 85.6058 26.9005 88.514 26.9005 92.9344V92.9634Z" fill="#3BA2F9"/>
<path d="M29.9917 81.389C29.9917 79.6587 31.443 78.2046 33.17 78.2046C34.897 78.2046 36.3482 79.6587 36.3482 81.389C36.3482 83.1194 34.897 84.5734 33.17 84.5734C31.443 84.5734 29.9917 83.1194 29.9917 81.389ZM30.5287 86.1293H35.8258V103.825H30.5287V86.1293Z" fill="#3BA2F9"/>
<path d="M50.3094 85.7658V91.7856C48.118 91.4367 45.0123 92.3236 45.0123 95.828V103.825H39.7151V86.1293H45.0123V89.2846C45.7234 86.9145 48.0889 85.7803 50.3094 85.7803V85.7658Z" fill="#3BA2F9"/>
<path d="M52.2396 81.389C52.2396 79.6587 53.6908 78.2046 55.4178 78.2046C57.1448 78.2046 58.5961 79.6587 58.5961 81.389C58.5961 83.1194 57.1448 84.5734 55.4178 84.5734C53.6908 84.5734 52.2396 83.1194 52.2396 81.389ZM52.7765 86.1293H58.0736V103.825H52.7765V86.1293Z" fill="#3BA2F9"/>
<path d="M78.9138 92.9634V103.825H73.6167V93.7341C73.6167 91.5385 72.238 90.5061 70.54 90.5061C68.5953 90.5061 67.2602 91.6402 67.2602 94.1558V103.825H61.963V86.1293H67.2602V87.7869C68.218 86.4783 69.974 85.6349 72.3106 85.6349C75.8807 85.6349 78.9138 88.1795 78.9138 92.9634Z" fill="#3BA2F9"/>
<path d="M100.668 86.1293V103.825H95.3712V102.168C94.2101 103.52 92.4686 104.334 90.1031 104.334C85.4735 104.334 81.6567 100.263 81.6567 94.9846C81.6567 89.7063 85.4735 85.6349 90.1031 85.6349C92.4686 85.6349 94.1956 86.4492 95.3712 87.7869V86.1293H100.668ZM95.3712 94.9846C95.3712 92.3237 93.6006 90.666 91.1625 90.666C88.7244 90.666 86.9538 92.3237 86.9538 94.9846C86.9538 97.6456 88.7244 99.3032 91.1625 99.3032C93.6006 99.3032 95.3712 97.6456 95.3712 94.9846Z" fill="#3BA2F9"/>
<path d="M113.512 99.5795C114.963 99.5795 116.197 99.0124 116.908 98.2417L121.146 100.685C119.419 103.098 116.806 104.334 113.439 104.334C107.402 104.334 103.658 100.263 103.658 94.9846C103.658 89.7063 107.475 85.6349 113.062 85.6349C118.214 85.6349 122.031 89.6336 122.031 94.9846C122.031 95.7262 121.958 96.4387 121.813 97.1076H109.274C109.942 98.9542 111.567 99.5795 113.512 99.5795ZM116.763 93.1379C116.197 91.0877 114.615 90.3461 113.019 90.3461C111.001 90.3461 109.666 91.3349 109.173 93.1379H116.763Z" fill="#3BA2F9"/>
<path d="M123.264 100.961C123.264 99.1142 124.788 97.6019 126.617 97.6019C128.446 97.6019 129.969 99.1287 129.969 100.961C129.969 102.793 128.446 104.32 126.617 104.32C124.788 104.32 123.264 102.793 123.264 100.961Z" fill="#4DEAFF"/>
<path d="M147.21 98.518C147.21 102.589 143.684 104.32 139.867 104.32C136.34 104.32 133.656 102.982 132.277 100.103L136.863 97.4856C137.327 98.8234 138.314 99.5795 139.867 99.5795C141.144 99.5795 141.768 99.1869 141.768 98.4889C141.768 96.5405 133.075 97.5729 133.075 91.4512C133.075 87.5979 136.326 85.6495 139.998 85.6495C142.857 85.6495 145.396 86.929 146.891 89.43L142.363 91.8729C141.87 90.9568 141.159 90.317 139.998 90.317C139.083 90.317 138.517 90.666 138.517 91.3058C138.517 93.327 147.21 91.9747 147.21 98.5325V98.518Z" fill="#3BA2F9"/>
<path d="M156.034 91.2186V97.4856C156.034 99.0124 157.34 99.1433 159.677 99.0124V103.825C152.754 104.538 150.737 102.444 150.737 97.4856V91.2186H147.907V86.1148H150.737V82.7559L156.034 81.1564V86.1148H159.677V91.2186H156.034Z" fill="#3BA2F9"/>
<path d="M179.733 86.1293V103.825H174.436V102.168C173.478 103.476 171.722 104.334 169.386 104.334C165.816 104.334 162.782 101.79 162.782 97.0058V86.1438H168.08V96.2351C168.08 98.4308 169.458 99.4631 171.156 99.4631C173.101 99.4631 174.436 98.329 174.436 95.8134V86.1438H179.733V86.1293Z" fill="#3BA2F9"/>
<path d="M201.749 79.048V103.825H196.452V102.168C195.291 103.52 193.549 104.334 191.184 104.334C186.554 104.334 182.737 100.263 182.737 94.9846C182.737 89.7063 186.554 85.6349 191.184 85.6349C193.549 85.6349 195.276 86.4492 196.452 87.7869V79.048H201.749ZM196.452 94.9701C196.452 92.3091 194.681 90.6515 192.243 90.6515C189.805 90.6515 188.034 92.3091 188.034 94.9701C188.034 97.631 189.805 99.2887 192.243 99.2887C194.681 99.2887 196.452 97.631 196.452 94.9701Z" fill="#3BA2F9"/>
<path d="M222.4 86.1293L216.363 103.302C214.389 108.929 211.24 111.154 206.291 110.907V105.948C208.759 105.948 209.934 105.163 210.703 103.011L203.679 86.1293H209.513L213.432 96.9621L216.755 86.1293H222.415H222.4Z" fill="#3BA2F9"/>
<path d="M162.579 116.81C162.579 116.927 162.565 117.043 162.565 117.159H155.918C156.092 118.817 157.355 119.907 159.024 119.907C160.228 119.907 161.143 119.355 161.563 118.57L162.202 118.948C161.607 119.951 160.46 120.605 159.009 120.605C156.745 120.605 155.149 118.991 155.149 116.767C155.149 114.542 156.702 112.928 158.951 112.928C161.201 112.928 162.579 114.775 162.579 116.796V116.81ZM155.918 116.447H161.825C161.665 114.658 160.402 113.655 158.966 113.655C157.297 113.655 156.078 114.818 155.932 116.447H155.918Z" fill="#3BA2F9"/>
<path d="M170.518 115.88V120.46H169.763V115.88C169.763 114.527 168.979 113.64 167.601 113.64C166.222 113.64 165.032 114.586 165.032 116.563V120.445H164.292V113.088H165.032V114.484C165.583 113.393 166.527 112.928 167.659 112.928C169.4 112.928 170.503 114.091 170.503 115.865L170.518 115.88Z" fill="#3BA2F9"/>
<path d="M179.835 113.102V120.096C179.835 122.307 178.209 123.557 176.178 123.557C174.465 123.557 173.246 122.859 172.709 121.798L173.348 121.434C173.725 122.219 174.552 122.859 176.163 122.859C177.992 122.859 179.08 121.783 179.08 120.111V118.759C178.485 119.893 177.353 120.62 175.931 120.62C173.827 120.62 172.129 118.962 172.129 116.781C172.129 114.6 173.827 112.942 175.931 112.942C177.353 112.942 178.485 113.684 179.08 114.804V113.102H179.82H179.835ZM179.095 116.781C179.095 115.036 177.73 113.655 175.989 113.655C174.247 113.655 172.883 115.036 172.883 116.781C172.883 118.526 174.247 119.907 175.989 119.907C177.73 119.907 179.095 118.526 179.095 116.781Z" fill="#3BA2F9"/>
<path d="M182.099 109.714H182.839V120.445H182.099V109.714Z" fill="#3BA2F9"/>
<path d="M184.871 110.732C184.871 110.427 185.132 110.165 185.451 110.165C185.77 110.165 186.032 110.427 186.032 110.732C186.032 111.052 185.77 111.328 185.451 111.328C185.132 111.328 184.871 111.067 184.871 110.732ZM185.088 113.102H185.829V120.46H185.088V113.102Z" fill="#3BA2F9"/>
<path d="M193.041 118.526C193.041 119.733 191.982 120.62 190.414 120.62C188.949 120.62 187.976 119.936 187.628 118.991L188.267 118.628C188.528 119.428 189.326 119.922 190.429 119.922C191.459 119.922 192.316 119.471 192.316 118.541C192.316 116.534 187.875 117.683 187.875 115.036C187.875 113.873 188.876 112.942 190.371 112.942C191.561 112.942 192.475 113.509 192.867 114.411L192.243 114.76C191.938 113.989 191.169 113.64 190.371 113.64C189.413 113.64 188.615 114.135 188.615 115.022C188.615 116.999 193.07 115.836 193.07 118.526H193.041Z" fill="#3BA2F9"/>
<path d="M200.951 115.88V120.46H200.196V115.88C200.196 114.527 199.412 113.64 198.034 113.64C196.655 113.64 195.465 114.586 195.465 116.563V120.445H194.725V110.151H195.465V114.484C196.016 113.393 196.96 112.928 198.092 112.928C199.833 112.928 200.936 114.091 200.936 115.865L200.951 115.88Z" fill="#3BA2F9"/>
<path d="M137.676 19.1693L134.236 16.8282L110.421 0.557129L63.4433 32.6631L86.4023 49.2976V37.6069C86.4023 30.4819 97.1562 24.7238 110.421 24.7238C113.802 24.7238 117.024 25.1019 119.941 25.7853C120.594 25.9307 121.247 26.1052 121.871 26.2797C122.524 26.4687 123.148 26.6723 123.758 26.8904C123.816 26.9049 123.859 26.934 123.918 26.9485C125.166 27.3993 126.312 27.9082 127.372 28.4753C127.401 28.4899 127.43 28.5044 127.459 28.5189C127.952 28.7807 128.416 29.057 128.866 29.3478C128.91 29.3768 128.968 29.4059 129.011 29.4496C129.955 30.0603 130.782 30.7291 131.493 31.4271C131.537 31.4707 131.566 31.4998 131.609 31.5434C131.914 31.8488 132.204 32.1687 132.465 32.5031C132.509 32.5613 132.553 32.6049 132.596 32.6631C133.162 33.3901 133.597 34.1462 133.902 34.9314C133.931 35.0041 133.96 35.0914 133.989 35.1786C134.105 35.484 134.192 35.8038 134.265 36.1237C134.28 36.2255 134.309 36.3128 134.323 36.4146C134.396 36.8072 134.439 37.1998 134.439 37.6069V49.3122L141.449 44.2229V23.4733C141.449 22.8771 141.463 22.3101 141.449 21.772L137.646 19.1838L137.676 19.1693Z" fill="#3BA2F9"/>
<path opacity="0.3" d="M132.48 32.5031C132.48 32.5031 132.567 32.6049 132.611 32.6631C132.567 32.6049 132.524 32.5467 132.48 32.5031Z" fill="white"/>
<path opacity="0.3" d="M128.866 29.3623C128.866 29.3623 128.968 29.4205 129.011 29.4641C128.968 29.435 128.91 29.4059 128.866 29.3623Z" fill="white"/>
<path opacity="0.3" d="M131.508 31.4271C131.508 31.4271 131.58 31.4998 131.624 31.5434C131.58 31.4998 131.551 31.4707 131.508 31.4271Z" fill="white"/>
<path opacity="0.3" d="M123.758 26.8904C123.758 26.8904 123.859 26.934 123.918 26.9485C123.859 26.934 123.816 26.9049 123.758 26.8904Z" fill="white"/>
<path opacity="0.3" d="M127.386 28.4899C127.386 28.4899 127.444 28.5192 127.474 28.5339C127.444 28.5192 127.415 28.5046 127.386 28.4899Z" fill="white"/>
<path d="M110.421 38.9592C113.802 38.9592 117.024 39.3372 119.941 40.0207V25.7853C117.024 25.1019 113.802 24.7238 110.421 24.7238C97.1562 24.7238 86.4023 30.4965 86.4023 37.6069V51.8568C86.4023 44.7318 97.1562 38.9737 110.421 38.9737V38.9592Z" fill="white"/>
<path d="M134.338 36.4C134.41 36.7926 134.454 37.1998 134.454 37.6069C134.454 37.1852 134.41 36.7926 134.338 36.4Z" fill="white"/>
<path d="M131.624 31.5434C131.929 31.8488 132.219 32.1687 132.48 32.5031C132.219 32.1832 131.929 31.8633 131.624 31.5434Z" fill="white"/>
<path d="M129.026 29.4496C129.969 30.0603 130.797 30.7291 131.508 31.4271C130.797 30.7291 129.955 30.0603 129.026 29.4496Z" fill="white"/>
<path d="M119.941 25.7707C120.594 25.9307 121.247 26.1052 121.871 26.2797C121.247 26.0906 120.609 25.9162 119.941 25.7707Z" fill="white"/>
<path d="M132.611 32.6631C133.177 33.3901 133.612 34.1462 133.917 34.9314C133.612 34.1462 133.162 33.3901 132.611 32.6631Z" fill="white"/>
<path d="M134.28 36.1092C134.207 35.7893 134.12 35.4694 134.004 35.1641C133.975 35.0768 133.946 35.0041 133.917 34.9169C133.612 34.1317 133.162 33.3755 132.611 32.6485C132.567 32.5903 132.524 32.5322 132.48 32.4886C132.219 32.1687 131.929 31.8488 131.624 31.5289C131.58 31.4853 131.551 31.4562 131.508 31.4125C130.797 30.7146 129.955 30.0457 129.026 29.435C128.982 29.4059 128.924 29.3768 128.881 29.3332C128.431 29.0424 127.967 28.7661 127.473 28.5044C127.444 28.4899 127.415 28.4753 127.386 28.4608C126.327 27.8937 125.166 27.3848 123.932 26.934C123.874 26.9195 123.83 26.8904 123.772 26.8758C123.163 26.6577 122.539 26.4542 121.886 26.2651C121.262 26.0761 120.609 25.9162 119.956 25.7707V40.0061C128.489 41.9837 134.454 46.5349 134.454 51.8423V37.6069C134.454 37.1998 134.41 36.7926 134.338 36.4C134.323 36.2982 134.294 36.211 134.28 36.1092Z" fill="#CAF5FF"/>
<path d="M110.421 64.7399C114.615 64.7399 118.548 64.1583 121.987 63.155C125.166 64.7254 129.781 66.5429 134.41 66.6447C134.41 66.6447 131 63.4167 129.026 60.0142C132.422 57.7894 134.454 54.954 134.454 51.8714H86.4169C86.4169 58.9818 97.1707 64.7544 110.435 64.7544L110.421 64.7399Z" fill="#8DEAFF"/>
<path opacity="0.3" d="M119.941 51.8423V40.0061C117.024 39.3227 113.802 38.9446 110.421 38.9446C97.1562 38.9446 86.4023 44.7173 86.4023 51.8277H134.439H119.941V51.8423Z" fill="white"/>
<path d="M119.941 51.8423V40.0061C117.024 39.3227 113.802 38.9446 110.421 38.9446C97.1562 38.9446 86.4023 44.7173 86.4023 51.8277H134.439H119.941V51.8423Z" fill="#8FFAFF"/>
<path d="M134.454 51.8423C134.454 46.5349 128.475 41.9837 119.956 40.0061V51.8423H134.454Z" fill="white"/>
<path d="M134.454 51.8423C134.454 46.5349 128.475 41.9837 119.956 40.0061V51.8423H134.454Z" fill="#4DEAFF"/>
</g>
<defs>
<clipPath id="clip0_1285_15448">
<rect width="222" height="123" fill="white" transform="translate(0.400391 0.557129)"/>
</clipPath>
</defs>
</svg>
