<svg width="80" height="57" viewBox="0 0 80 57" fill="none" xmlns="http://www.w3.org/2000/svg">
<g clip-path="url(#clip0_1285_15594)">
<path d="M79.0616 27.3802L71.0513 21.9103V33.182L79.0616 27.3802Z" fill="#3BA2F9"/>
<path d="M71.0513 33.182V19.553C71.0513 18.3171 71.0513 16.921 70.3418 15.5707C69.5751 14.1174 68.2592 13.0875 66.7258 12.7328C65.2496 12.3895 63.659 12.7328 62.2629 13.694C61.9425 13.9115 61.0041 14.8384 60.7638 15.1359L63.6132 17.2071C63.7734 16.8867 63.842 16.6922 64.1167 16.4404C64.3455 16.223 64.6316 16.0399 64.9406 15.9255C65.4899 15.7309 66.1994 15.6737 66.7258 15.9598C67.0691 16.1429 67.3551 16.4404 67.5382 16.7837C67.9044 17.4818 67.8129 18.5574 67.8129 19.6789V38.0683L64.9292 42.9317C66.0163 44.0417 67.5497 44.7626 69.3348 44.7626C71.12 44.7626 72.7793 43.9844 73.8778 42.8058L71.0742 38.0797V33.1705L71.0513 33.182Z" fill="#21469C"/>
<path d="M62.549 16.12L59.6767 14.1632L39.731 0.557129L0.400391 27.3802L19.6251 41.2838V31.5227C19.6251 25.5722 28.631 20.7546 39.7425 20.7546C42.5804 20.7546 45.2696 21.075 47.707 21.6357C48.2563 21.7501 48.7941 21.8989 49.3205 22.0476C49.8583 22.2079 50.3847 22.3795 50.8997 22.5626C50.9454 22.574 50.9912 22.5969 51.037 22.6084C52.0783 22.986 53.051 23.4208 53.9321 23.89C53.955 23.9015 53.9779 23.9129 54.0008 23.9243C54.4128 24.1418 54.8018 24.3821 55.1795 24.6224C55.2252 24.6453 55.2596 24.6796 55.3053 24.7025C56.0949 25.2174 56.793 25.7667 57.388 26.3503C57.4223 26.3847 57.4452 26.4075 57.4796 26.4419C57.7428 26.7051 57.9831 26.9683 58.2005 27.2429C58.2348 27.2887 58.2806 27.3345 58.3149 27.3802C58.7841 27.9867 59.1503 28.6161 59.4135 29.2684C59.4364 29.337 59.4593 29.4057 59.4821 29.4743C59.5737 29.7375 59.6538 30.0007 59.711 30.2639C59.7339 30.344 59.7453 30.4241 59.7568 30.5042C59.814 30.8361 59.8483 31.168 59.8483 31.4998V41.2724L65.7187 37.0269V19.6903C65.7187 19.1983 65.7302 18.7176 65.7187 18.2714L62.5375 16.1086L62.549 16.12Z" fill="#3BA2F9"/>
<path d="M39.7539 56.0572C51.3574 56.0572 60.7638 46.6507 60.7638 35.0473C60.7638 23.4438 51.3574 14.0374 39.7539 14.0374C28.1505 14.0374 18.744 23.4438 18.744 35.0473C18.744 46.6507 28.1505 56.0572 39.7539 56.0572Z" fill="white"/>
<path d="M39.7539 18.6719C50.5678 18.6719 59.4707 26.8538 60.6265 37.3588C60.7066 36.5921 60.7638 35.8254 60.7638 35.0473C60.7638 23.4437 51.3574 14.0374 39.7539 14.0374C28.1504 14.0374 18.744 23.4437 18.744 35.0473C18.744 35.8254 18.7898 36.6035 18.8813 37.3588C20.0371 26.8538 28.94 18.6719 39.7539 18.6719Z" fill="#8DEAFF"/>
<path d="M26.4797 41.547C29.3237 41.547 31.6292 39.2415 31.6292 36.3975C31.6292 33.5535 29.3237 31.248 26.4797 31.248C23.6357 31.248 21.3302 33.5535 21.3302 36.3975C21.3302 39.2415 23.6357 41.547 26.4797 41.547Z" fill="#FFC5D2"/>
<path d="M53.0281 41.547C55.8721 41.547 58.1776 39.2415 58.1776 36.3975C58.1776 33.5535 55.8721 31.248 53.0281 31.248C50.1842 31.248 47.8787 33.5535 47.8787 36.3975C47.8787 39.2415 50.1842 41.547 53.0281 41.547Z" fill="#FFC5D2"/>
<path d="M34.284 32.9645C35.232 32.9645 36.0005 32.196 36.0005 31.248C36.0005 30.3001 35.232 29.5316 34.284 29.5316C33.336 29.5316 32.5675 30.3001 32.5675 31.248C32.5675 32.196 33.336 32.9645 34.284 32.9645Z" fill="#3BA2F9"/>
<path d="M45.2238 32.9645C46.1718 32.9645 46.9403 32.196 46.9403 31.248C46.9403 30.3001 46.1718 29.5316 45.2238 29.5316C44.2758 29.5316 43.5073 30.3001 43.5073 31.248C43.5073 32.196 44.2758 32.9645 45.2238 32.9645Z" fill="#3BA2F9"/>
<path d="M39.7539 40.8146C35.9204 40.8146 32.5675 38.8922 30.9998 35.791C30.7823 35.3676 30.954 34.8527 31.3774 34.6353C31.8008 34.4178 32.3157 34.5895 32.5332 35.0129C33.8148 37.5304 36.5841 39.0981 39.7653 39.0981C42.9466 39.0981 45.7158 37.5304 46.9861 35.0129C47.2035 34.5895 47.7184 34.4178 48.1418 34.6353C48.5652 34.8527 48.7369 35.3676 48.5195 35.791C46.9517 38.8922 43.5988 40.8146 39.7653 40.8146H39.7539Z" fill="#3BA2F9"/>
</g>
<defs>
<clipPath id="clip0_1285_15594">
<rect width="78.6612" height="55.5" fill="white" transform="translate(0.400391 0.557129)"/>
</clipPath>
</defs>
</svg>
