<svg width="25" height="21" viewBox="0 0 25 21" fill="none" xmlns="http://www.w3.org/2000/svg">
<path fill-rule="evenodd" clip-rule="evenodd" d="M14.6404 5.98203C14.6404 3.15354 12.2495 0.860596 9.30011 0.860596C6.35076 0.860596 3.95984 3.15354 3.95984 5.98203C3.95984 8.81052 6.35076 11.1035 9.30011 11.1035C12.2495 11.1035 14.6404 8.81052 14.6404 5.98203Z" fill="#6EBCFF"/>
<path fill-rule="evenodd" clip-rule="evenodd" d="M2.79573 13.5234C7.00189 12.0828 11.5983 12.0828 15.8045 13.5234C17.0746 13.9585 17.9225 15.1123 17.9225 16.4057V17.786C17.9225 19.5945 16.2522 20.9837 14.3854 20.728L13.9566 20.6692C10.868 20.2461 7.73227 20.2461 4.64363 20.6692L4.21485 20.728C2.34799 20.9837 0.677734 19.5945 0.677734 17.786V16.4057C0.677734 15.1123 1.52559 13.9585 2.79573 13.5234Z" fill="#6EBCFF"/>
<path d="M17.9209 8.59033H23.7969" stroke="#6EBCFF" stroke-width="1.5" stroke-linecap="round" stroke-linejoin="round"/>
<path d="M20.8594 5.65238L20.8594 11.5283" stroke="#6EBCFF" stroke-width="1.5" stroke-linecap="round" stroke-linejoin="round"/>
</svg>
