<svg width="14" height="15" viewBox="0 0 14 15" fill="none" xmlns="http://www.w3.org/2000/svg">
<path d="M1.0706 9.54416L1.37895 9.2358C1.47845 9.1363 1.53446 9.00137 1.53446 8.86066V5.91374C1.53446 2.85316 4.01556 0.372078 7.07613 0.37207C10.1367 0.372063 12.6178 2.85315 12.6178 5.91374V8.86064C12.6178 9.00134 12.6737 9.1363 12.7732 9.2358L13.0816 9.54419C13.1757 9.63835 13.2235 9.68611 13.2611 9.73845C13.3322 9.8375 13.3789 9.95159 13.3986 10.0719C13.4091 10.1356 13.4092 10.2024 13.4092 10.3359C13.4092 10.6412 13.4092 10.7938 13.3677 10.9169C13.2887 11.1511 13.1054 11.335 12.8712 11.414C12.7486 11.4554 12.5964 11.4554 12.2936 11.4554H9.45113V12.2471C9.45113 13.5587 8.38781 14.6221 7.07613 14.6221C5.76446 14.6221 4.70113 13.5587 4.70113 12.2471V11.4554H1.8587C1.55585 11.4554 1.40428 11.4554 1.28166 11.414C1.04743 11.335 0.863329 11.1511 0.784323 10.9169C0.742798 10.7938 0.742798 10.6412 0.742798 10.336C0.742798 10.2024 0.742798 10.1356 0.753248 10.0719C0.772997 9.95158 0.820108 9.83753 0.891235 9.73848C0.928873 9.68606 0.976148 9.63861 1.0706 9.54416Z" fill="#6EBCFF"/>
</svg>
