<svg width="18" height="21" viewBox="0 0 18 21" fill="none" xmlns="http://www.w3.org/2000/svg">
<path d="M12 15.7V16.7C12 18.3569 10.6569 19.7 9 19.7C7.34315 19.7 6 18.3569 6 16.7V15.7M12 15.7H6M12 15.7H15.5905C15.973 15.7 16.1652 15.7 16.3201 15.6478C16.616 15.548 16.8475 15.3157 16.9473 15.0198C16.9997 14.8643 16.9997 14.6715 16.9997 14.2859C16.9997 14.1172 16.9995 14.0329 16.9863 13.9525C16.9614 13.8005 16.9024 13.6563 16.8126 13.5312C16.7651 13.4651 16.7048 13.4048 16.5858 13.2858L16.1963 12.8963C16.0706 12.7706 16 12.6001 16 12.4224V8.70001C16 4.83401 12.866 1.7 9 1.70001C5.13401 1.70002 2 4.83403 2 8.70001V12.4224C2 12.6002 1.92924 12.7706 1.80357 12.8963L1.41406 13.2858C1.29476 13.4051 1.23504 13.4651 1.1875 13.5313C1.09766 13.6564 1.03815 13.8004 1.0132 13.9525C1 14.0329 1 14.1172 1 14.286C1 14.6715 1 14.8643 1.05245 15.0198C1.15225 15.3156 1.3848 15.548 1.68066 15.6478C1.83556 15.7 2.02701 15.7 2.40956 15.7H6" stroke="#3BA2F9" stroke-width="1.5" stroke-linecap="round" stroke-linejoin="round"/>
</svg>
