<svg width="21" height="21" viewBox="0 0 21 21" fill="none" xmlns="http://www.w3.org/2000/svg">
<path d="M5.66666 0.833252H4.70023C3.34677 0.833252 2.66954 0.833252 2.15258 1.09665C1.69786 1.32835 1.32842 1.69778 1.09673 2.15251C0.833328 2.66946 0.833328 3.34669 0.833328 4.70015V16.3002C0.833328 17.6536 0.833328 18.33 1.09673 18.8469C1.32842 19.3017 1.69786 19.6717 2.15258 19.9034C2.66903 20.1666 3.34545 20.1666 4.69626 20.1666H5.66666M5.66666 0.833252H16.3002C17.6537 0.833252 18.3295 0.833252 18.8464 1.09665C19.3012 1.32835 19.6718 1.69778 19.9035 2.15251C20.1667 2.66895 20.1667 3.34537 20.1667 4.69619V16.3042C20.1667 17.6551 20.1667 18.3305 19.9035 18.8469C19.6718 19.3017 19.3012 19.6717 18.8464 19.9034C18.33 20.1666 17.6545 20.1666 16.3037 20.1666H5.66666M5.66666 0.833252V20.1666M10.5 9.29159H15.3333M10.5 5.66659H15.3333" stroke="#3BA2F9" stroke-width="1.5" stroke-linecap="round" stroke-linejoin="round"/>
</svg>
