<svg width="23" height="18" viewBox="0 0 23 18" fill="none" xmlns="http://www.w3.org/2000/svg">
<path d="M17.5215 7.54807H21.6902C21.7383 7.54638 21.7862 7.5546 21.8309 7.57222C21.8757 7.58984 21.9163 7.61648 21.9503 7.65049C21.9843 7.68449 22.011 7.72513 22.0286 7.76987C22.0462 7.81462 22.0544 7.86251 22.0527 7.91057V10.8106C22.0544 10.8586 22.0462 10.9065 22.0286 10.9513C22.011 10.996 21.9843 11.0366 21.9503 11.0706C21.9163 11.1047 21.8757 11.1313 21.8309 11.1489C21.7862 11.1665 21.7383 11.1748 21.6902 11.1731H17.5215C17.0408 11.1731 16.5798 10.9821 16.2399 10.6422C15.8999 10.3023 15.709 9.84127 15.709 9.36057C15.709 8.87986 15.8999 8.41885 16.2399 8.07894C16.5798 7.73903 17.0408 7.54807 17.5215 7.54807Z" fill="#6EBCFF"/>
<path d="M17.6786 5.73568H21.6902C21.7383 5.73736 21.7862 5.72914 21.8309 5.71152C21.8757 5.6939 21.9163 5.66726 21.9503 5.63326C21.9843 5.59925 22.011 5.55862 22.0286 5.51387C22.0462 5.46913 22.0544 5.42124 22.0527 5.37318V4.40651C22.0527 3.47715 21.6835 2.58585 21.0264 1.92869C20.3692 1.27153 19.4779 0.902344 18.5486 0.902344H3.8069C2.87754 0.902344 1.98624 1.27153 1.32908 1.92869C0.671922 2.58585 0.302734 3.47715 0.302734 4.40651V14.3148C0.302734 15.2442 0.671922 16.1355 1.32908 16.7927C1.98624 17.4498 2.87754 17.819 3.8069 17.819H18.5486C19.4779 17.819 20.3692 17.4498 21.0264 16.7927C21.6835 16.1355 22.0527 15.2442 22.0527 14.3148V13.3482C22.0544 13.3001 22.0462 13.2522 22.0286 13.2075C22.011 13.1627 21.9843 13.1221 21.9503 13.0881C21.9163 13.0541 21.8757 13.0275 21.8309 13.0098C21.7862 12.9922 21.7383 12.984 21.6902 12.9857H17.5215C16.9839 12.9858 16.453 12.8663 15.9673 12.6359C15.4815 12.4055 15.0531 12.07 14.7131 11.6536C14.373 11.2372 14.1298 10.7504 14.0011 10.2284C13.8724 9.70648 13.8615 9.16241 13.969 8.63568C14.1603 7.79983 14.6335 7.05531 15.309 6.52721C15.9845 5.99911 16.8213 5.71961 17.6786 5.73568ZM8.76107 6.64193H5.13607C4.89572 6.64193 4.66521 6.54645 4.49525 6.37649C4.3253 6.20654 4.22982 5.97603 4.22982 5.73568C4.22982 5.49532 4.3253 5.26482 4.49525 5.09486C4.66521 4.92491 4.89572 4.82943 5.13607 4.82943H8.76107C9.00142 4.82943 9.23193 4.92491 9.40188 5.09486C9.57184 5.26482 9.66732 5.49532 9.66732 5.73568C9.66732 5.97603 9.57184 6.20654 9.40188 6.37649C9.23193 6.54645 9.00142 6.64193 8.76107 6.64193Z" fill="#6EBCFF"/>
</svg>
