<svg width="22" height="17" viewBox="0 0 22 17" fill="none" xmlns="http://www.w3.org/2000/svg">
<path d="M11.4008 0.247996L20.6845 5.64243C21.0457 5.85244 21.0457 6.37325 20.6845 6.58325L11.4008 11.9777C10.8303 12.3091 10.1263 12.3091 9.55658 11.9777L0.272859 6.58325C-0.0883487 6.37325 -0.0883487 5.85244 0.272859 5.64243L9.55658 0.247996C10.1263 -0.0826653 10.8303 -0.0826653 11.4008 0.247996Z" fill="#3BA2F9"/>
<path d="M11.4008 0.247996L20.6845 5.64243C21.0457 5.85244 21.0457 6.37325 20.6845 6.58325L11.4008 11.9777C10.8303 12.3091 10.1263 12.3091 9.55658 11.9777L0.272859 6.58325C-0.0883487 6.37325 -0.0883487 5.85244 0.272859 5.64243L9.55658 0.247996C10.1263 -0.0826653 10.8303 -0.0826653 11.4008 0.247996Z" fill="#3BA2F9"/>
<path d="M20.6816 6.58752L17.5277 8.42028L11.4032 11.9789C10.8305 12.3073 10.1279 12.3073 9.5552 11.9789L3.43071 8.42028L0.269187 6.58752C-0.0897291 6.3737 -0.0897291 5.85441 0.269187 5.64059L9.5552 0.249207C10.1279 -0.0791629 10.8305 -0.0791629 11.4032 0.249207L20.6816 5.64059C21.0482 5.85441 21.0482 6.3737 20.6816 6.58752Z" fill="#3BA2F9"/>
<path d="M11.979 12.9693C11.5185 13.2327 11.0023 13.3709 10.4792 13.3709C9.95607 13.3709 9.43984 13.2327 8.98547 12.9731L3.43066 9.74512V12.6126C3.43066 13.2541 3.76667 13.8421 4.32414 14.1628L8.19585 16.4003C9.60861 17.2098 11.3497 17.2098 12.7549 16.4003L16.6342 14.1628C17.184 13.8421 17.5277 13.2541 17.5277 12.6126V9.74512L11.979 12.9693Z" fill="#3BA2F9"/>
<path d="M20.8491 13.6258V7.81445L19.4738 8.61323V13.6251C19.1508 13.845 18.9385 14.2154 18.9385 14.6354C18.9385 15.3105 19.486 15.858 20.1611 15.858C20.8362 15.858 21.3837 15.3112 21.3837 14.6362C21.3837 14.2161 21.1714 13.8465 20.8491 13.6258Z" fill="#3BA2F9"/>
</svg>
