<svg width="25" height="19" viewBox="0 0 25 19" fill="none" xmlns="http://www.w3.org/2000/svg">
<path fill-rule="evenodd" clip-rule="evenodd" d="M21.3839 16.9101C21.4433 16.918 21.5027 16.9261 21.562 16.9344L21.8612 16.9764C23.1641 17.1592 24.3297 16.1662 24.3297 14.8734V13.8868C24.3297 12.9623 23.738 12.1375 22.8516 11.8266C21.8278 11.4674 20.7709 11.2335 19.7039 11.1249C20.8173 11.9301 21.5079 13.2337 21.5079 14.656V15.8809C21.5079 16.2368 21.4649 16.5813 21.3839 16.9101ZM16.8697 9.81242C17.3134 9.99556 17.8008 10.0968 18.3123 10.0968C20.3706 10.0968 22.0392 8.45777 22.0392 6.43596C22.0392 4.41415 20.3706 2.77515 18.3123 2.77515C18.2516 2.77515 18.1912 2.77657 18.1311 2.7794C18.5054 3.57652 18.7145 4.46654 18.7145 5.40542C18.7145 7.13039 18.0085 8.69046 16.8697 9.81242Z" fill="#6EBCFF"/>
<path fill-rule="evenodd" clip-rule="evenodd" d="M3.62583 16.9098C3.5658 16.9178 3.50579 16.926 3.4458 16.9344L3.14656 16.9764C1.84371 17.1592 0.678069 16.1662 0.678069 14.8734V13.8868C0.678069 12.9623 1.26977 12.1375 2.15618 11.8266C3.18059 11.4672 4.23815 11.2332 5.30575 11.1247C4.19236 11.9299 3.50181 13.2335 3.50181 14.6558V15.8807C3.50181 16.2365 3.54488 16.5811 3.62583 16.9098ZM8.13965 9.81178C7.69551 9.99533 7.20756 10.0968 6.69549 10.0968C4.63719 10.0968 2.9686 8.45777 2.9686 6.43596C2.9686 4.41415 4.63719 2.77515 6.69549 2.77515C6.75684 2.77515 6.81784 2.7766 6.87847 2.77948C6.5043 3.57652 6.29521 4.46643 6.29521 5.40518C6.29521 7.12994 7.00106 8.68985 8.13965 9.81178Z" fill="#6EBCFF"/>
<path fill-rule="evenodd" clip-rule="evenodd" d="M17.073 5.40566C17.073 2.89549 15.0381 0.860596 12.5279 0.860596C10.0177 0.860596 7.98283 2.89549 7.98283 5.40566C7.98283 7.91584 10.0177 9.95073 12.5279 9.95073C15.0381 9.95073 17.073 7.91584 17.073 5.40566Z" fill="#6EBCFF"/>
<path fill-rule="evenodd" clip-rule="evenodd" d="M6.99207 12.0983C10.5719 10.8198 14.4839 10.8198 18.0637 12.0983C19.1448 12.4844 19.8664 13.5084 19.8664 14.6563V15.8812C19.8664 17.4862 18.4448 18.7191 16.8559 18.4921L16.491 18.44C13.8623 18.0644 11.1935 18.0644 8.5648 18.44L8.19987 18.4921C6.611 18.7191 5.18945 17.4862 5.18945 15.8812V14.6563C5.18945 13.5084 5.91105 12.4844 6.99207 12.0983Z" fill="#6EBCFF"/>
</svg>
