<svg width="16" height="20" viewBox="0 0 16 20" fill="none" xmlns="http://www.w3.org/2000/svg">
<path opacity="0.5" d="M7.92136 16V10M7.92136 10L4.92979 12M7.92136 10L10.9129 12M8.91855 1.00087C8.82333 1 8.7164 1 8.59418 1H4.13223C3.01527 1 2.45638 1 2.02975 1.21799C1.65449 1.40973 1.34961 1.71547 1.1584 2.0918C0.941025 2.51962 0.941025 3.08009 0.941025 4.2002V15.8002C0.941025 16.9203 0.941025 17.4801 1.1584 17.9079C1.34961 18.2842 1.65449 18.5905 2.02975 18.7822C2.45596 19 3.01419 19 4.12899 19L11.7138 19C12.8285 19 13.386 19 13.8122 18.7822C14.1874 18.5905 14.4933 18.2842 14.6845 17.9079C14.9017 17.4805 14.9017 16.9215 14.9017 15.8036V7.32568C14.9017 7.20296 14.9017 7.09561 14.9008 7M8.91855 1.00087C9.20339 1.00347 9.38358 1.01385 9.5556 1.05526C9.7591 1.10425 9.95349 1.18526 10.1319 1.29492C10.3331 1.41857 10.5059 1.59182 10.8506 1.9375L13.9673 5.06298C14.3122 5.40889 14.4837 5.58136 14.6071 5.78319C14.7164 5.96214 14.7973 6.15726 14.8462 6.36133C14.8875 6.53376 14.8981 6.71451 14.9008 7M8.91855 1.00087V3.8C8.91855 4.9201 8.91855 5.47977 9.13593 5.90759C9.32714 6.28392 9.63202 6.59048 10.0073 6.78223C10.4335 7 10.9917 7 12.1065 7H14.9008M14.9008 7H14.9019" stroke="#D4D8E0" stroke-width="1.5" stroke-linecap="round" stroke-linejoin="round"/>
</svg>
