<svg width="17" height="14" viewBox="0 0 17 14" fill="none" xmlns="http://www.w3.org/2000/svg">
<path d="M14.685 1.79174C14.3352 1.44066 13.9199 1.16216 13.4627 0.972141C13.0056 0.782127 12.5157 0.684326 12.0209 0.684326C11.5261 0.684326 11.0361 0.782127 10.579 0.972141C10.1219 1.16216 9.70653 1.44066 9.35674 1.79174L8.63078 2.52002L7.90482 1.79174C7.19826 1.08291 6.23994 0.684694 5.2407 0.684694C4.24146 0.684694 3.28315 1.08291 2.57658 1.79174C1.87001 2.50058 1.47307 3.46196 1.47307 4.4644C1.47307 5.46684 1.87001 6.42822 2.57658 7.13705L3.30254 7.86533L8.63078 13.2106L13.959 7.86533L14.685 7.13705C15.0349 6.78613 15.3126 6.36948 15.502 5.9109C15.6914 5.45231 15.7889 4.96079 15.7889 4.4644C15.7889 3.96801 15.6914 3.47648 15.502 3.0179C15.3126 2.55931 15.0349 2.14266 14.685 1.79174Z" stroke="#ACB6CB" stroke-linecap="round" stroke-linejoin="round"/>
</svg>
