<svg width="18" height="18" viewBox="0 0 18 18" fill="none" xmlns="http://www.w3.org/2000/svg">
<g clip-path="url(#clip0_1320_20116)">
<path d="M17.1915 1.27494C16.9323 1.06004 16.6284 0.905704 16.3019 0.823183C15.9755 0.740662 15.6347 0.732039 15.3045 0.797942L12.213 1.54794C11.5218 1.6737 10.8966 2.03809 10.4465 2.57755C9.99638 3.11702 9.74989 3.79736 9.75 4.49994V15.5999L9 15.7357L8.25 15.5999V4.49994C8.25274 3.80431 8.01239 3.12958 7.57047 2.59235C7.12856 2.05513 6.51285 1.68916 5.82975 1.55769L2.652 0.786692C2.32783 0.727825 1.99468 0.740872 1.6761 0.82491C1.35753 0.908947 1.06129 1.06192 0.808336 1.27303C0.555379 1.48414 0.351872 1.74823 0.212195 2.04663C0.0725179 2.34503 8.00589e-05 2.67047 0 2.99994L0 15.6254L9 17.2627L18 15.6254V2.99994C18 2.67071 17.9276 2.3455 17.7879 2.04739C17.6482 1.74927 17.4446 1.48555 17.1915 1.27494Z" fill="#3BA2F9"/>
</g>
<defs>
<clipPath id="clip0_1320_20116">
<rect width="18" height="18" fill="white"/>
</clipPath>
</defs>
</svg>
