<svg width="18" height="19" viewBox="0 0 18 19" fill="none" xmlns="http://www.w3.org/2000/svg">
<path d="M17.6667 15.4167V9.40645C17.6667 8.82759 17.6662 8.538 17.5958 8.26864C17.5334 8.02993 17.4311 7.80404 17.2925 7.59991C17.1361 7.36956 16.9187 7.17854 16.4831 6.79736L11.2831 2.24736C10.4743 1.53963 10.0698 1.18595 9.6147 1.05135C9.21366 0.932753 8.7862 0.932753 8.38516 1.05135C7.93037 1.18585 7.52654 1.53919 6.71893 2.24585L1.51721 6.79736C1.08157 7.17855 0.864252 7.36956 0.707886 7.59991C0.569315 7.80404 0.466135 8.02993 0.40376 8.26864C0.333374 8.538 0.333374 8.82758 0.333374 9.40645V15.4167C0.333374 16.4263 0.333374 16.9308 0.498302 17.329C0.718205 17.8599 1.13972 18.2822 1.67061 18.5021C2.06878 18.667 2.57355 18.667 3.58309 18.667C4.59263 18.667 5.09796 18.667 5.49613 18.5021C6.02703 18.2822 6.44843 17.86 6.66833 17.3291C6.83326 16.9309 6.83337 16.4262 6.83337 15.4166V14.3333C6.83337 13.1367 7.80342 12.1666 9.00004 12.1666C10.1967 12.1666 11.1667 13.1367 11.1667 14.3333V15.4166C11.1667 16.4262 11.1667 16.9309 11.3316 17.3291C11.5515 17.86 11.9731 18.2822 12.5039 18.5021C12.9021 18.667 13.4069 18.667 14.4164 18.667C15.426 18.667 15.9313 18.667 16.3295 18.5021C16.8604 18.2822 17.2818 17.8599 17.5017 17.329C17.6666 16.9308 17.6667 16.4263 17.6667 15.4167Z" fill="#3BA2F9"/>
</svg>
