<svg width="20" height="22" viewBox="0 0 20 22" fill="none" xmlns="http://www.w3.org/2000/svg">
<g clip-path="url(#clip0_1285_15832)">
<path d="M18.8243 2.34807C18.5507 2.09735 18.2299 1.91729 17.8853 1.82102C17.5407 1.72474 17.181 1.71468 16.8325 1.79157L13.5692 2.66657C12.8396 2.81329 12.1797 3.2384 11.7046 3.86778C11.2295 4.49716 10.9693 5.29089 10.9694 6.11057V19.0606L10.1777 19.2189L9.38607 19.0606V6.11057C9.38897 5.299 9.13526 4.51182 8.66879 3.88505C8.20232 3.25828 7.55241 2.83132 6.83136 2.67794L3.47707 1.77844C3.13488 1.70977 2.78323 1.72499 2.44695 1.82303C2.11068 1.92107 1.79799 2.09955 1.53098 2.34584C1.26397 2.59213 1.04915 2.90023 0.901718 3.24837C0.754281 3.5965 0.677819 3.97618 0.677734 4.36057L0.677734 19.0903L10.1777 21.0004L19.6777 19.0903V4.36057C19.6778 3.97646 19.6013 3.59705 19.4538 3.24925C19.3064 2.90145 19.0914 2.59378 18.8243 2.34807Z" fill="#6EBCFF"/>
</g>
<defs>
<clipPath id="clip0_1285_15832">
<rect width="19" height="21" fill="white" transform="translate(0.677734 0.860596)"/>
</clipPath>
</defs>
</svg>
