<svg width="26" height="21" viewBox="0 0 26 21" fill="none" xmlns="http://www.w3.org/2000/svg">
<path d="M13.7477 1.14491L24.3908 7.32925C24.8049 7.57001 24.8049 8.16708 24.3908 8.40784L13.7477 14.5922C13.0937 14.9721 12.2865 14.9721 11.6334 14.5922L0.990262 8.40784C0.576163 8.16708 0.576163 7.57001 0.990262 7.32925L11.6334 1.14491C12.2865 0.765826 13.0937 0.765826 13.7477 1.14491Z" fill="#6EBCFF"/>
<path d="M13.7477 1.14491L24.3908 7.32925C24.8049 7.57001 24.8049 8.16708 24.3908 8.40784L13.7477 14.5922C13.0937 14.9721 12.2865 14.9721 11.6334 14.5922L0.990262 8.40784C0.576163 8.16708 0.576163 7.57001 0.990262 7.32925L11.6334 1.14491C12.2865 0.765826 13.0937 0.765826 13.7477 1.14491Z" fill="#6EBCFF"/>
<path d="M24.3878 8.41303L20.772 10.5142L13.7507 14.5939C13.0941 14.9703 12.2887 14.9703 11.6321 14.5939L4.6108 10.5142L0.986339 8.41303C0.574866 8.1679 0.574866 7.57258 0.986339 7.32744L11.6321 1.1466C12.2887 0.770144 13.0941 0.770144 13.7507 1.1466L24.3878 7.32744C24.808 7.57258 24.808 8.1679 24.3878 8.41303Z" fill="#6EBCFF"/>
<path d="M14.4094 15.729C13.8815 16.031 13.2897 16.1895 12.69 16.1895C12.0903 16.1895 11.4985 16.031 10.9776 15.7333L4.60938 12.0327V15.3201C4.60938 16.0555 4.99458 16.7296 5.63368 17.0973L10.0723 19.6625C11.692 20.5905 13.688 20.5905 15.2989 19.6625L19.7463 17.0973C20.3767 16.7296 20.7706 16.0555 20.7706 15.3201V12.0327L14.4094 15.729Z" fill="#6EBCFF"/>
<path d="M24.5791 16.4817V9.81934L23.0024 10.7351V16.4808C22.6321 16.733 22.3887 17.1576 22.3887 17.6391C22.3887 18.413 23.0164 19.0407 23.7903 19.0407C24.5642 19.0407 25.1919 18.4139 25.1919 17.6399C25.1919 17.1584 24.9486 16.7347 24.5791 16.4817Z" fill="#6EBCFF"/>
</svg>
