<svg width="15" height="17" viewBox="0 0 15 17" fill="none" xmlns="http://www.w3.org/2000/svg">
<path fill-rule="evenodd" clip-rule="evenodd" d="M12.1451 4.37558C12.1451 1.95901 10.0654 0 7.49999 0C4.93456 0 2.85487 1.95901 2.85487 4.37558C2.85487 6.79215 4.93456 8.75116 7.49999 8.75116C10.0654 8.75116 12.1451 6.79215 12.1451 4.37558Z" fill="#ACB6CB"/>
<path fill-rule="evenodd" clip-rule="evenodd" d="M1.84229 10.8187C5.50093 9.58785 9.49907 9.58785 13.1577 10.8187C14.2625 11.1904 15 12.1761 15 13.2812V14.4604C15 16.0056 13.5472 17.1925 11.9233 16.974L11.5503 16.9238C8.86375 16.5623 6.13625 16.5623 3.44965 16.9238L3.07669 16.974C1.45284 17.1925 0 16.0056 0 14.4604V13.2812C0 12.1761 0.737487 11.1904 1.84229 10.8187Z" fill="#ACB6CB"/>
</svg>
