<svg width="19" height="22" viewBox="0 0 19 22" fill="none" xmlns="http://www.w3.org/2000/svg">
<path fill-rule="evenodd" clip-rule="evenodd" d="M11.9277 0.116935C11.8658 0.112724 11.8035 0.110596 11.741 0.110596H5.67773C3.05438 0.110596 0.927734 2.23724 0.927734 4.8606V16.8606C0.927734 19.4839 3.05438 21.6106 5.67773 21.6106H13.6777C16.3011 21.6106 18.4277 19.4839 18.4277 16.8606V7.6106H14.6777C13.159 7.6106 11.9277 6.37938 11.9277 4.8606V0.116935ZM4.92773 10.8606C4.92773 10.4464 5.26352 10.1106 5.67773 10.1106H13.6777C14.0919 10.1106 14.4277 10.4464 14.4277 10.8606C14.4277 11.2748 14.0919 11.6106 13.6777 11.6106H5.67773C5.26352 11.6106 4.92773 11.2748 4.92773 10.8606ZM5.67773 15.1106C5.26352 15.1106 4.92773 15.4464 4.92773 15.8606C4.92773 16.2748 5.26352 16.6106 5.67773 16.6106H9.67773C10.0919 16.6106 10.4277 16.2748 10.4277 15.8606C10.4277 15.4464 10.0919 15.1106 9.67773 15.1106H5.67773Z" fill="#6EBCFF"/>
<path d="M17.9993 6.1106C17.9362 6.01119 17.8664 5.91549 17.7903 5.82419L13.8536 1.10009C13.7257 0.946603 13.5827 0.808966 13.4277 0.688617V4.8606C13.4277 5.55095 13.9874 6.1106 14.6777 6.1106H17.9993Z" fill="#6EBCFF"/>
</svg>
