<svg width="22" height="23" viewBox="0 0 22 23" fill="none" xmlns="http://www.w3.org/2000/svg">
<path d="M20.3986 1.07797V21.9222C20.3986 22.5176 19.916 23.0002 19.3207 23.0002H2.2349C1.63956 23.0002 1.15694 22.5176 1.15694 21.9222V4.32623H4.4088C5.00414 4.32623 5.48676 3.84361 5.48676 3.24826V0H19.3207C19.916 0 20.3986 0.482622 20.3986 1.07797Z" fill="#E9EDF4"/>
<path d="M1.15694 4.32623H4.4088C5.00414 4.32623 5.48676 3.84361 5.48676 3.24826V0L1.15694 4.32623Z" fill="#D2DBEA"/>
<path d="M21.5593 13.3641V18.3659C21.5593 18.9612 21.0767 19.4438 20.4813 19.4438H1.07797C0.482622 19.4438 0 18.9612 0 18.3659V13.3641C0 12.7688 0.482622 12.2861 1.07797 12.2861H20.4813C21.0767 12.2861 21.5593 12.7688 21.5593 13.3641Z" fill="#F14F4A"/>
<path d="M17.4373 7.36679C17.4373 7.62465 17.2317 7.83025 16.9738 7.83025H4.58233C4.32794 7.83025 4.11887 7.62465 4.11887 7.36679C4.11887 7.10892 4.32794 6.90332 4.58233 6.90332H16.9738C17.2317 6.90332 17.4373 7.10892 17.4373 7.36679Z" fill="#D2DBEA"/>
<path d="M17.4375 9.74203C17.4375 9.99989 17.2319 10.2055 16.9741 10.2055H4.58258C4.32818 10.2055 4.11911 9.99989 4.11911 9.74203C4.11911 9.48417 4.32818 9.27856 4.58258 9.27856H16.9741C17.2319 9.27856 17.4375 9.48417 17.4375 9.74203Z" fill="#D2DBEA"/>
<path d="M6.20765 17.5749C6.16378 17.5313 6.14203 17.4774 6.14203 17.4134V14.3237C6.14203 14.2598 6.16378 14.2051 6.20765 14.1596C6.25116 14.1142 6.3052 14.0916 6.36906 14.0916H7.52001C7.83968 14.0916 8.10075 14.1454 8.30252 14.253C8.50464 14.3607 8.64921 14.4988 8.73694 14.667C8.82431 14.8353 8.86817 15.0171 8.86817 15.2122C8.86817 15.4074 8.82431 15.5892 8.73694 15.7575C8.64921 15.9259 8.50464 16.0638 8.30252 16.1715C8.10075 16.2792 7.83968 16.3329 7.52001 16.3329H6.60136V17.4134C6.60136 17.4774 6.57855 17.5313 6.53328 17.5749C6.48767 17.6186 6.43293 17.6406 6.36906 17.6406C6.3052 17.6406 6.25116 17.6186 6.20765 17.5749ZM7.47475 15.8989C7.81793 15.8989 8.05935 15.8332 8.19901 15.702C8.33866 15.5706 8.40849 15.4074 8.40849 15.2122C8.40849 15.0171 8.33866 14.8537 8.19901 14.7225C8.05935 14.5912 7.81793 14.5256 7.47475 14.5256H6.60136V15.8989H7.47475Z" fill="white"/>
<path d="M6.36906 17.7304C6.28204 17.7304 6.20414 17.6986 6.14414 17.6384C6.08308 17.5776 6.0522 17.5019 6.0522 17.4133V14.3237C6.0522 14.2358 6.08273 14.1596 6.14308 14.0972C6.20274 14.0349 6.28099 14.0017 6.36906 14.0017H7.52002C7.85337 14.0017 8.13058 14.0596 8.34463 14.1737C8.56184 14.2894 8.72045 14.4414 8.81659 14.6254C8.91028 14.8061 8.95801 15.0035 8.95801 15.2121C8.95801 15.4207 8.91028 15.6183 8.81659 15.7988C8.7208 15.9829 8.56184 16.135 8.34463 16.2508C8.13093 16.3648 7.85372 16.4227 7.52002 16.4227H6.69119V17.4133C6.69119 17.5011 6.65821 17.5793 6.59574 17.6395C6.53258 17.6998 6.45644 17.7304 6.36906 17.7304ZM6.36906 14.1814C6.32941 14.1814 6.29888 14.1942 6.27257 14.2217C6.24484 14.2505 6.23186 14.283 6.23186 14.3237V17.4133C6.23186 17.4535 6.24414 17.4847 6.27116 17.5112C6.3252 17.5653 6.41363 17.5651 6.47118 17.51C6.49855 17.4835 6.51153 17.4528 6.51153 17.4133V16.2431H7.52002C7.8239 16.2431 8.07268 16.1924 8.26006 16.0922C8.44499 15.9938 8.57833 15.8673 8.65728 15.7159C8.73764 15.5613 8.77834 15.3918 8.77834 15.2121C8.77834 15.0327 8.73764 14.8632 8.65728 14.7084C8.57833 14.5572 8.44464 14.4305 8.26042 14.3323C8.07233 14.2321 7.82354 14.1814 7.52002 14.1814H6.36906ZM7.47475 15.9887H6.51153V14.4358H7.47475C7.84495 14.4358 8.10216 14.5081 8.26042 14.657C8.41832 14.8053 8.49833 14.9921 8.49833 15.2121C8.49833 15.4322 8.41832 15.619 8.26042 15.7674C8.10216 15.9164 7.84495 15.9887 7.47475 15.9887ZM6.69119 15.809H7.47475C7.79267 15.809 8.01584 15.7509 8.1376 15.6366C8.25936 15.5218 8.31867 15.383 8.31867 15.2121C8.31867 15.0413 8.25936 14.9025 8.1376 14.7879C8.01584 14.6735 7.79267 14.6154 7.47475 14.6154H6.69119V15.809Z" fill="white"/>
<path d="M9.60003 17.5497C9.55616 17.506 9.53441 17.4521 9.53441 17.3881V14.3237C9.53441 14.2598 9.55616 14.2051 9.60003 14.1596C9.64354 14.1142 9.69758 14.0916 9.76144 14.0916H10.7762C11.1598 14.0916 11.4854 14.1765 11.7532 14.3465C12.0205 14.5165 12.2216 14.736 12.3563 15.0053C12.4907 15.2746 12.5581 15.5573 12.5581 15.8534C12.5581 16.1496 12.4907 16.4322 12.3563 16.7015C12.2216 16.9709 12.0205 17.1904 11.7532 17.3604C11.4854 17.5304 11.1598 17.6153 10.7762 17.6153H9.76144C9.69758 17.6153 9.64354 17.5934 9.60003 17.5497ZM10.7208 17.1861C10.9966 17.1861 11.2387 17.1298 11.4475 17.017C11.6563 16.9044 11.8177 16.7479 11.9321 16.5475C12.0465 16.3473 12.1041 16.1159 12.1041 15.8534C12.1041 15.5909 12.0465 15.3595 11.9321 15.1592C11.8177 14.959 11.6563 14.8025 11.4475 14.6897C11.2387 14.577 10.9966 14.5205 10.7208 14.5205H9.99374V17.1861H10.7208Z" fill="white"/>
<path d="M10.7763 17.7051H9.76153C9.67451 17.7051 9.59661 17.6734 9.53661 17.6132C9.47555 17.5523 9.44467 17.4767 9.44467 17.3881V14.3237C9.44467 14.2358 9.4752 14.1596 9.53555 14.0972C9.59521 14.0349 9.67346 14.0017 9.76153 14.0017H10.7763C11.1757 14.0017 11.5202 14.0922 11.8013 14.2707C12.0817 14.4488 12.2954 14.6825 12.4368 14.9651C12.5768 15.246 12.648 15.5448 12.648 15.8534C12.648 16.162 12.5768 16.4608 12.4368 16.7417C12.2954 17.0244 12.0817 17.2581 11.8013 17.4361C11.5202 17.6146 11.1757 17.7051 10.7763 17.7051ZM9.76153 14.1814C9.72188 14.1814 9.69135 14.1942 9.66504 14.2217C9.63732 14.2505 9.62433 14.283 9.62433 14.3237V17.3881C9.62433 17.4283 9.63661 17.4593 9.66363 17.486C9.6903 17.5126 9.72153 17.5254 9.76153 17.5254H10.7763C11.1409 17.5254 11.4532 17.4444 11.7052 17.2846C11.9575 17.1242 12.1494 16.9145 12.2761 16.6614C12.4038 16.4057 12.4684 16.1338 12.4684 15.8534C12.4684 15.573 12.4038 15.3011 12.2761 15.0455C12.1494 14.7923 11.9575 14.5826 11.7052 14.4223C11.4532 14.2624 11.1409 14.1814 10.7763 14.1814H9.76153ZM10.7209 17.276H9.904V14.4307H10.7209C11.01 14.4307 11.269 14.4912 11.4904 14.6105C11.7129 14.7309 11.888 14.9005 12.0101 15.1146C12.1322 15.3281 12.194 15.5767 12.194 15.8534C12.194 16.1301 12.1322 16.3787 12.0101 16.5921C11.888 16.8063 11.7129 16.9759 11.4904 17.0961C11.2694 17.2154 11.0104 17.276 10.7209 17.276ZM10.0837 17.0963H10.7209C10.9802 17.0963 11.2104 17.043 11.4048 16.938C11.5974 16.834 11.7487 16.6877 11.8543 16.5029C11.9603 16.3169 12.0143 16.0985 12.0143 15.8534C12.0143 15.6083 11.9603 15.3899 11.8543 15.2037C11.7487 15.0191 11.5974 14.8728 11.4048 14.7686C11.2101 14.6637 10.9799 14.6103 10.7209 14.6103H10.0837V17.0963Z" fill="white"/>
<path d="M13.3926 17.5749C13.3487 17.5313 13.327 17.4774 13.327 17.4134V14.3237C13.327 14.2598 13.3487 14.2051 13.3926 14.1596C13.4361 14.1142 13.4901 14.0916 13.554 14.0916H15.518C15.5784 14.0916 15.6296 14.1126 15.6717 14.1545C15.7138 14.1966 15.7349 14.2481 15.7349 14.3086C15.7349 14.3691 15.7138 14.4196 15.6717 14.46C15.6296 14.5004 15.5784 14.5205 15.518 14.5205H13.7863V15.6362H15.3411C15.4019 15.6362 15.4531 15.6574 15.4952 15.6994C15.5373 15.7415 15.5584 15.7927 15.5584 15.8534C15.5584 15.914 15.5373 15.9645 15.4952 16.0048C15.4531 16.0452 15.4019 16.0654 15.3411 16.0654H13.7863V17.4134C13.7863 17.4774 13.7635 17.5313 13.7182 17.5749C13.6726 17.6186 13.6179 17.6406 13.554 17.6406C13.4901 17.6406 13.4361 17.6186 13.3926 17.5749Z" fill="white"/>
<path d="M13.554 17.7304C13.467 17.7304 13.3891 17.6986 13.3291 17.6384C13.268 17.5776 13.2371 17.5019 13.2371 17.4133V14.3237C13.2371 14.2358 13.2677 14.1596 13.328 14.0972C13.3877 14.0349 13.4659 14.0017 13.554 14.0017H15.518C15.6026 14.0017 15.6755 14.0317 15.7352 14.0908C15.7938 14.1496 15.8247 14.2247 15.8247 14.3086C15.8247 14.3931 15.7931 14.4679 15.7338 14.5249C15.6745 14.5816 15.6019 14.6103 15.518 14.6103H13.8761V15.5464H15.3411C15.4261 15.5464 15.499 15.5764 15.5587 15.6357C15.618 15.6952 15.6482 15.7685 15.6482 15.8534C15.6482 15.938 15.6166 16.0127 15.5573 16.0697C15.498 16.1264 15.4254 16.1552 15.3411 16.1552H13.8761V17.4133C13.8761 17.5011 13.8431 17.5793 13.7807 17.6395C13.7175 17.6998 13.6414 17.7304 13.554 17.7304ZM13.554 14.1814C13.5143 14.1814 13.4838 14.1942 13.4575 14.2217C13.4298 14.2505 13.4168 14.283 13.4168 14.3237V17.4133C13.4168 17.4535 13.4291 17.4847 13.4561 17.5112C13.5101 17.5653 13.5986 17.5651 13.6561 17.51C13.6835 17.4835 13.6965 17.4528 13.6965 17.4133V15.9755H15.3411C15.3787 15.9755 15.4078 15.9643 15.4331 15.9399C15.4573 15.9167 15.4685 15.8892 15.4685 15.8534C15.4685 15.8167 15.4569 15.788 15.4317 15.7629C15.4064 15.7378 15.3776 15.726 15.3411 15.726H13.6965V14.4307H15.518C15.5552 14.4307 15.5843 14.4195 15.6096 14.3951C15.6338 14.3719 15.645 14.3444 15.645 14.3086C15.645 14.2719 15.6334 14.2431 15.6082 14.218C15.5829 14.1931 15.5545 14.1814 15.518 14.1814H13.554Z" fill="white"/>
</svg>
