<svg width="20" height="21" viewBox="0 0 20 21" fill="none" xmlns="http://www.w3.org/2000/svg">
<path fill-rule="evenodd" clip-rule="evenodd" d="M7.7865 1.16772C8.57959 0.967035 9.40949 0.860596 10.2633 0.860596C11.1171 0.860596 11.9471 0.96705 12.7402 1.16776C13.3875 1.33156 13.7217 1.89055 13.8292 2.35522C13.9566 2.90565 14.302 3.4015 14.8286 3.70556C15.3128 3.98511 15.8603 4.05079 16.3652 3.93175C16.8292 3.82234 17.4771 3.87446 17.9107 4.38049C18.7169 5.32132 19.3528 6.41324 19.7701 7.60847C20.0192 8.32204 19.6332 8.96459 19.2257 9.30035C18.7553 9.68793 18.4573 10.2727 18.4573 10.9276C18.4573 11.5825 18.7553 12.1673 19.2257 12.5548C19.6332 12.8906 20.0192 13.5331 19.7701 14.2467C19.3528 15.4418 18.717 16.5336 17.911 17.4744C17.4773 17.9805 16.8293 18.0326 16.3653 17.9231C15.8603 17.8041 15.3128 17.8697 14.8286 18.1493C14.3019 18.4534 13.9564 18.9493 13.8291 19.4998C13.7216 19.9646 13.3874 20.5237 12.7401 20.6875C11.947 20.8881 11.117 20.9946 10.2633 20.9946C9.40952 20.9946 8.57964 20.8882 7.78658 20.6875C7.13923 20.5237 6.805 19.9646 6.69751 19.4998C6.57018 18.9493 6.22474 18.4534 5.69803 18.1493C5.21377 17.8697 4.66626 17.8041 4.16131 17.9232C3.69723 18.0326 3.04922 17.9805 2.61558 17.4744C1.80953 16.5336 1.17369 15.4418 0.756468 14.2467C0.507356 13.5332 0.893325 12.8906 1.30084 12.5548C1.77125 12.1673 2.06922 11.5825 2.06922 10.9276C2.06922 10.2727 1.77125 9.68792 1.30085 9.30034C0.893325 8.96458 0.507357 8.32203 0.756469 7.60845C1.17373 6.41321 1.80968 5.32129 2.61585 4.38046C3.04946 3.87442 3.69739 3.82231 4.16144 3.93173C4.66635 4.05079 5.21381 3.98512 5.69804 3.70556C6.22469 3.4015 6.57011 2.90564 6.69747 2.3552C6.80499 1.89052 7.13922 1.33151 7.7865 1.16772ZM10.2629 13.737C8.71135 13.737 7.45355 12.4792 7.45355 10.9276C7.45355 9.37598 8.71135 8.11817 10.2629 8.11817C11.8145 8.11817 13.0723 9.37598 13.0723 10.9276C13.0723 12.4792 11.8145 13.737 10.2629 13.737Z" fill="#6EBCFF"/>
</svg>
