<svg width="26" height="25" viewBox="0 0 26 25" fill="none" xmlns="http://www.w3.org/2000/svg">
<path d="M3.93278 23.2208L6.09173 21.4937L6.0969 21.4895C6.55365 21.1241 6.78294 20.9406 7.03822 20.8102C7.26555 20.6941 7.50729 20.6095 7.75736 20.5582C8.03924 20.5003 8.33424 20.5003 8.92362 20.5003H21.2217C22.8054 20.5003 23.5975 20.5003 24.203 20.1918C24.7362 19.9202 25.1698 19.4863 25.4415 18.9532C25.75 18.3477 25.75 17.5558 25.75 15.9721V5.19595C25.75 3.61223 25.75 2.81919 25.4415 2.2137C25.1698 1.68058 24.736 1.24745 24.2028 0.975807C23.5968 0.666992 22.8038 0.666992 21.2169 0.666992H4.78361C3.19679 0.666992 2.4028 0.666992 1.79671 0.975807C1.26359 1.24745 0.830456 1.68058 0.558815 2.2137C0.25 2.81979 0.25 3.61379 0.25 5.2006V21.4512C0.25 22.9609 0.25 23.7156 0.559481 24.1034C0.828631 24.4405 1.23662 24.6367 1.66805 24.6362C2.16413 24.6357 2.75387 24.1639 3.93278 23.2208Z" fill="#3BA2F9"/>
<path d="M8.75 10.725L11.5772 13.7L17.25 7.75" stroke="white" stroke-width="2" stroke-linecap="round" stroke-linejoin="round"/>
</svg>
