<svg width="32" height="32" viewBox="0 0 32 32" fill="none" xmlns="http://www.w3.org/2000/svg">
<path d="M21.7333 5.67993C21.6258 5.67624 21.5212 5.71456 21.4415 5.78675C21.3619 5.85893 21.3135 5.95932 21.3066 6.0666C21.2117 6.87621 20.8222 7.6226 20.2124 8.16355C19.6026 8.7045 18.8151 9.0022 17.9999 8.99993H13.9999C13.1802 9.0088 12.3862 8.71407 11.7708 8.17249C11.1553 7.63092 10.762 6.88081 10.6666 6.0666C10.6597 5.95932 10.6113 5.85893 10.5317 5.78675C10.452 5.71456 10.3474 5.67624 10.2399 5.67993C9.24985 5.77943 8.33239 6.24439 7.66672 6.98403C7.00104 7.72366 6.63496 8.68486 6.63994 9.67993V24.3466C6.63994 25.4075 7.06137 26.4249 7.81152 27.175C8.56166 27.9252 9.57908 28.3466 10.6399 28.3466H21.3066C22.3675 28.3466 23.3849 27.9252 24.135 27.175C24.8852 26.4249 25.3066 25.4075 25.3066 24.3466V9.67993C25.3123 8.68901 24.9499 7.73127 24.2897 6.99226C23.6295 6.25326 22.7186 5.78561 21.7333 5.67993Z" fill="#3BA2F9"/>
<path d="M14 7.66675H18C18.5304 7.66675 19.0391 7.45603 19.4142 7.08096C19.7893 6.70589 20 6.19718 20 5.66675C20 5.13632 19.7893 4.62761 19.4142 4.25253C19.0391 3.87746 18.5304 3.66675 18 3.66675H14C13.4696 3.66675 12.9609 3.87746 12.5858 4.25253C12.2107 4.62761 12 5.13632 12 5.66675C12 6.19718 12.2107 6.70589 12.5858 7.08096C12.9609 7.45603 13.4696 7.66675 14 7.66675Z" fill="#3BA2F9"/>
<path d="M12.3083 17.2308L14.7645 19.6924L19.693 14.7693" stroke="white" stroke-width="2" stroke-linecap="round" stroke-linejoin="round"/>
</svg>
