<svg width="33" height="33" viewBox="0 0 33 33" fill="none" xmlns="http://www.w3.org/2000/svg">
<g clip-path="url(#clip0_1373_30459)">
<path d="M33 8.71748H7.63126V2.74248C7.63126 1.94248 8.30157 1.29248 9.12657 1.29248H31.4789C32.3039 1.29248 32.9742 1.94248 32.9742 2.74248V8.71748H33Z" fill="#41A5ED"/>
<path d="M7.63126 8.71729H33V16.1673H7.63126V8.71729Z" fill="#2C7BD5"/>
<path d="M7.63126 16.1675H33V23.6175H7.63126V16.1675Z" fill="#195ABE"/>
<path d="M31.5047 31.0427H9.15234C8.32734 31.0427 7.65703 30.3927 7.65703 29.5927V23.6177H33V29.5927C33 30.3927 32.3297 31.0427 31.5047 31.0427Z" fill="#103E91"/>
<path d="M15.3399 24.2925H1.67579C0.773444 24.2925 0.0257874 23.5675 0.0257874 22.6925V9.64248C0.0257874 8.76748 0.773444 8.04248 1.67579 8.04248H15.3399C16.2422 8.04248 16.9899 8.76748 16.9899 9.64248V22.6925C16.9899 23.5675 16.268 24.2925 15.3399 24.2925Z" fill="#2166C3"/>
<path d="M4.97578 20.7675L2.68124 11.7925H4.51171L5.41406 15.8675C5.64609 16.9675 5.87812 18.0925 6.03281 18.9925H6.05859C6.21328 18.0425 6.47109 16.9925 6.7289 15.8425L7.73437 11.7925H9.53906L10.4672 15.9175C10.6992 16.9925 10.9055 17.9675 11.0344 18.9425H11.0602C11.2148 17.9425 11.4469 16.9425 11.7047 15.8425L12.6844 11.7925H14.4375L11.9109 20.7675H10.0547L9.07499 16.5425C8.84296 15.5425 8.66249 14.6925 8.53359 13.7175H8.50781C8.35312 14.6675 8.17265 15.5425 7.88906 16.5675L6.80624 20.7925H4.97578V20.7675Z" fill="white"/>
<path opacity="0.2" d="M16.9898 9.49268V9.64268V22.6927C16.9898 23.5677 16.2422 24.2927 15.3398 24.2927H7.65703V25.7177H16.732C17.6344 25.7177 18.382 24.9927 18.382 24.1177V11.0677C18.382 10.2677 17.7891 9.59268 16.9898 9.49268Z" fill="black"/>
</g>
<defs>
<clipPath id="clip0_1373_30459">
<rect width="33" height="32" fill="white" transform="translate(0 0.16748)"/>
</clipPath>
</defs>
</svg>
